<?xml version="1.0" standalone="no"?>
<!DOCTYPE svg PUBLIC "-//W3C//DTD SVG 20010904//EN"
 "http://www.w3.org/TR/2001/REC-SVG-20010904/DTD/svg10.dtd">
<svg version="1.0" xmlns="http://www.w3.org/2000/svg"
 width="1760.000000pt" height="1760.000000pt" viewBox="0 0 1760.000000 1760.000000"
 preserveAspectRatio="xMidYMid meet">

<g transform="translate(0.000000,1760.000000) scale(0.100000,-0.100000)"
fill="#000000" stroke="none">
<path d="M0 13920 c0 -3593 0 -3680 19 -3680 10 0 24 -7 31 -15 8 -9 29 -15
56 -15 29 0 46 -5 52 -16 8 -14 13 -12 47 10 25 17 41 23 45 16 7 -11 24 3 32
25 1 6 18 9 35 7 18 -1 43 4 55 12 14 9 56 17 108 19 l85 4 5 89 c7 100 21
144 47 144 10 0 32 9 48 20 17 11 46 20 65 20 19 0 40 4 47 8 8 5 13 57 16
165 2 87 7 160 11 164 3 3 6 16 6 28 0 14 9 26 25 33 14 6 25 17 25 25 0 7 21
18 48 25 26 7 62 18 80 23 19 6 36 8 39 5 4 -3 17 10 31 30 20 29 29 35 50 31
16 -3 35 2 51 14 21 15 32 17 58 10 20 -6 35 -6 38 0 8 12 95 12 95 -1 0 -15
28 -12 55 6 13 9 28 13 34 10 5 -3 11 -1 13 4 2 6 32 14 66 18 l63 7 4 120 c4
151 12 179 50 183 15 2 41 16 57 32 27 27 28 33 28 123 0 51 3 97 7 100 3 4
16 1 27 -7 12 -8 48 -13 86 -13 45 0 66 -4 70 -14 4 -8 12 -24 18 -36 7 -13
12 -36 12 -53 0 -19 5 -30 14 -30 23 0 31 -22 13 -35 -20 -14 -23 -36 -5 -32
7 1 13 -2 13 -8 1 -5 5 -17 8 -25 3 -8 6 -26 6 -40 0 -14 6 -59 14 -100 9 -41
21 -110 27 -153 11 -73 35 -137 53 -137 4 0 7 -11 7 -24 0 -27 35 -76 55 -76
8 0 19 -9 25 -20 6 -11 19 -20 30 -20 21 0 104 -42 130 -65 8 -8 31 -14 50
-13 19 0 44 -1 55 -3 15 -3 21 2 23 19 2 12 12 28 22 34 10 6 16 17 13 24 -3
8 9 15 34 19 61 11 73 15 73 29 0 24 231 38 245 16 9 -15 93 -5 114 14 9 9 32
16 49 16 17 0 42 4 56 10 23 8 25 14 21 52 -2 24 -4 75 -3 113 0 39 0 102 -1
141 -2 70 -2 71 28 84 26 10 30 18 34 59 3 46 3 46 11 13 6 -23 13 -31 23 -28
8 4 18 6 23 6 9 0 24 86 25 142 0 43 18 52 23 13 3 -21 6 -24 18 -14 7 6 26 9
40 6 25 -4 114 36 122 55 5 12 50 10 57 -2 10 -17 25 -1 25 26 0 14 4 23 9 19
6 -3 14 2 19 11 14 24 45 10 37 -16 -5 -14 -2 -20 9 -20 13 0 16 13 17 63 1
147 11 272 22 279 7 4 26 8 43 8 39 0 45 6 34 36 -8 20 -6 24 10 24 11 0 20 5
20 10 0 6 -4 10 -10 10 -17 0 -11 47 6 54 9 4 14 9 11 13 -10 9 12 43 27 43 8
0 27 7 42 15 38 19 108 19 124 0 10 -12 10 -15 -1 -16 -24 -2 -33 -5 -64 -19
-24 -11 -27 -14 -12 -17 10 -3 32 1 49 8 35 14 51 0 41 -38 -4 -18 -1 -23 14
-23 11 0 33 -12 48 -26 25 -23 29 -33 27 -80 0 -30 -4 -59 -7 -64 -3 -6 1 -20
9 -32 11 -15 12 -26 5 -40 -7 -13 -7 -29 1 -52 6 -18 8 -40 4 -49 -3 -10 -1
-17 5 -17 6 0 11 10 11 21 0 18 4 20 23 14 12 -3 33 -9 47 -12 14 -3 28 -10
31 -15 7 -10 39 0 39 13 0 10 0 10 -55 14 -58 3 -101 23 -86 38 9 9 14 9 21
-3 5 -8 10 -10 10 -4 0 5 -6 16 -12 23 -11 10 -10 11 5 6 10 -4 17 -2 17 4 0
6 5 11 11 11 6 0 9 -6 6 -13 -6 -17 46 -38 64 -26 39 25 78 -9 43 -36 -18 -14
-17 -14 9 -15 24 0 27 3 21 24 -5 20 0 25 26 34 17 6 44 9 61 5 22 -4 29 -2
27 8 -2 10 8 14 37 14 36 0 40 -3 43 -27 5 -41 22 -34 19 7 -2 28 -7 36 -29
40 -18 4 -25 11 -21 21 3 9 -2 14 -16 14 -12 0 -21 -4 -21 -10 0 -5 5 -10 10
-10 6 0 10 -3 10 -8 0 -4 -20 -6 -45 -4 -26 2 -52 -1 -60 -8 -10 -8 -19 -8
-33 -1 -14 8 -24 6 -38 -5 -18 -15 -18 -15 4 -11 13 3 22 0 22 -7 0 -7 -17
-11 -45 -11 -45 0 -61 13 -27 22 19 4 22 33 8 66 -10 21 -26 23 -26 2 0 -8
-11 -17 -25 -21 -14 -3 -22 -10 -19 -15 3 -5 -5 -9 -18 -9 -17 0 -19 3 -9 9 9
6 11 18 7 35 -3 14 -1 34 6 45 9 15 9 23 -1 34 -8 10 -8 17 -2 21 6 4 8 13 4
21 -4 11 2 15 20 15 28 0 43 -26 33 -57 -3 -10 -1 -25 4 -33 14 -22 35 2 23
25 -15 26 7 65 35 65 16 0 22 -5 20 -16 -5 -29 20 -26 30 3 l9 28 19 -38 c18
-38 18 -39 -1 -53 -18 -14 -18 -14 2 -14 16 0 22 7 25 28 2 23 8 27 33 27 21
0 33 -7 42 -25 8 -16 13 -19 13 -9 0 23 26 43 42 32 19 -12 139 -11 135 2 -2
5 -17 12 -32 15 -16 3 -28 10 -27 15 3 17 52 12 69 -7 9 -10 22 -18 30 -18 7
0 13 -6 13 -12 0 -9 4 -8 10 2 7 12 11 8 16 -17 4 -18 10 -31 14 -28 3 2 18
-10 31 -26 13 -17 41 -50 62 -73 30 -35 36 -49 31 -72 -9 -46 11 -79 73 -126
65 -48 103 -84 103 -99 0 -5 16 -32 35 -61 63 -91 59 -123 -18 -143 -62 -16
-155 -80 -164 -113 -9 -38 5 -270 21 -329 27 -100 57 -144 184 -270 128 -126
184 -163 247 -163 20 0 47 7 61 16 15 10 29 13 33 8 8 -8 37 -100 79 -245 19
-66 12 -88 -49 -170 -21 -29 -39 -60 -39 -70 0 -22 -33 -43 -92 -57 -51 -13
-301 -134 -387 -189 -31 -19 -72 -50 -91 -69 -114 -111 -152 -144 -168 -144
-14 0 -15 -2 -2 -10 13 -9 13 -10 0 -10 -22 0 -92 -39 -112 -62 -10 -12 -19
-15 -23 -8 -4 6 -18 1 -38 -14 -35 -26 -239 -137 -299 -163 -24 -10 -40 -25
-47 -44 -7 -22 -18 -29 -48 -35 -40 -7 -75 -32 -206 -146 -42 -37 -83 -68 -90
-68 -7 0 -27 -13 -45 -30 -44 -40 -319 -223 -385 -256 -29 -15 -54 -30 -57
-34 -3 -4 -16 -13 -30 -20 -26 -14 -55 -48 -55 -65 0 -14 -46 -34 -107 -45
-29 -6 -78 -20 -108 -31 -35 -13 -56 -17 -58 -10 -5 16 -22 13 -22 -3 0 -8 -4
-16 -8 -18 -30 -12 -103 -196 -100 -253 0 -11 -7 -51 -16 -90 -9 -38 -22 -148
-28 -244 -20 -311 15 -534 114 -719 57 -108 118 -231 137 -279 10 -24 10 -44
2 -85 -14 -72 -27 -207 -42 -418 -13 -206 -7 -1047 10 -1270 20 -271 31 -484
41 -780 33 -1046 47 -1214 118 -1343 62 -115 188 -138 451 -82 40 9 76 14 78
11 3 -2 -11 -29 -31 -60 -82 -128 -144 -276 -193 -459 -23 -85 -28 -123 -28
-222 0 -119 0 -120 38 -195 21 -41 45 -82 53 -91 23 -26 64 -242 64 -340 l0
-86 -97 -6 c-54 -3 -855 -3 -1780 0 l-1683 5 0 -751 0 -751 8800 0 8800 0 0
738 0 737 -959 -3 -958 -3 -6 188 c-4 129 -11 207 -22 248 -44 158 -69 209
-205 415 -212 320 -232 356 -305 555 -87 237 -164 369 -272 463 l-58 51 33
298 c87 793 120 1124 131 1318 41 701 86 1107 167 1500 89 432 110 606 101
844 -10 282 -95 573 -270 930 -70 142 -129 228 -184 265 -38 26 -118 53 -223
75 -181 37 -534 105 -710 136 -501 87 -752 161 -859 252 l-35 30 51 109 c28
60 59 133 68 163 36 112 164 341 318 571 111 166 188 346 223 528 22 117 23
114 -42 477 -27 147 -20 551 12 763 l5 34 57 -2 c99 -4 119 -1 126 18 28 82
36 112 36 148 0 42 14 64 40 64 23 0 76 60 85 95 4 17 8 175 10 352 1 176 6
326 9 332 4 6 32 10 63 9 50 -1 58 1 77 25 12 15 32 27 44 27 12 0 22 6 23 13
0 6 1 35 2 62 2 46 4 50 29 53 l27 3 1 -433 c0 -484 3 -598 14 -617 6 -9 24
-11 67 -6 l59 7 0 -35 0 -35 -64 -7 c-60 -7 -64 -9 -62 -32 1 -19 6 -24 26
-22 84 5 98 0 117 -38 14 -29 23 -37 40 -35 18 3 21 -2 20 -30 -2 -39 31 -54
40 -19 7 28 19 26 27 -4 7 -28 27 -32 46 -10 16 20 40 19 40 -1 0 -23 62 -15
66 9 4 30 14 33 14 5 0 -38 27 -43 58 -10 26 27 28 27 45 10 16 -17 20 -17 39
-4 16 11 25 12 34 5 7 -6 18 -8 24 -4 16 10 12 35 -6 35 -10 0 -14 7 -12 23 3
19 9 22 41 21 31 -2 37 1 38 20 0 11 3 41 5 66 10 99 9 402 -1 410 -5 4 -19
10 -30 12 -19 3 -20 13 -25 192 -3 120 -1 190 5 194 17 10 133 13 139 4 13
-21 5 -356 -9 -393 -5 -13 1 -16 36 -16 28 0 46 -6 54 -17 16 -21 22 -20 28 5
5 17 12 20 43 17 32 -3 39 -7 46 -33 4 -16 3 -45 -2 -63 -7 -26 -4 -44 13 -83
19 -47 22 -50 34 -33 12 16 13 16 13 1 0 -9 5 -17 10 -17 6 0 10 12 10 26 0
18 -4 24 -13 21 -8 -3 -14 0 -14 6 0 7 -2 17 -3 22 -5 22 1 34 15 29 11 -5 17
3 21 25 6 30 10 33 44 35 9 1 16 13 18 28 2 16 11 30 22 33 10 3 20 15 23 25
10 37 35 22 52 -30 15 -45 15 -53 2 -73 -21 -33 -15 -147 10 -165 31 -22 62
-26 82 -8 24 22 31 20 31 -10 0 -16 5 -24 13 -21 6 2 11 15 9 30 -4 32 14 67
33 67 8 0 33 -28 56 -62 23 -35 53 -75 66 -90 14 -14 23 -31 19 -36 -3 -5 3
-17 14 -27 19 -17 21 -17 39 -1 11 10 21 28 23 39 2 12 13 27 25 33 32 15 63
45 63 60 0 7 17 21 37 31 20 10 41 27 46 38 6 11 13 27 17 35 4 8 17 16 29 18
17 3 21 -2 21 -21 0 -14 -7 -30 -15 -37 -16 -14 -11 -30 10 -30 7 0 21 23 30
50 19 57 49 68 65 25 5 -14 14 -25 20 -25 6 0 15 11 20 25 12 31 34 32 55 3
15 -22 17 -22 29 -5 16 21 66 23 66 2 0 -8 7 -15 15 -15 8 0 15 6 15 14 0 23
40 26 61 5 23 -23 29 -24 29 -4 0 16 42 30 64 22 8 -3 21 0 30 6 13 11 13 15
-4 36 -15 18 -20 19 -20 7 0 -21 -53 -22 -70 -1 -20 24 6 48 44 42 32 -5 83 9
73 20 -4 3 -26 7 -49 10 -60 6 -68 10 -68 33 0 26 24 36 55 22 19 -9 26 -7 41
9 23 25 12 34 -44 34 -46 0 -47 1 -47 30 0 23 5 30 20 31 11 0 25 -4 32 -9 15
-11 53 0 53 15 0 6 -7 19 -15 28 -14 15 -13 19 5 40 23 26 26 50 8 69 -11 10
-9 15 6 27 11 8 30 14 43 14 13 0 36 6 51 13 39 20 106 21 122 2 15 -18 7 -84
-12 -96 -10 -6 -7 -12 10 -25 18 -12 21 -19 11 -30 -14 -17 -51 -18 -66 -3
-16 16 -28 -8 -13 -26 6 -8 9 -19 6 -24 -4 -5 -2 -12 3 -15 5 -4 12 -2 16 4
10 16 52 12 59 -6 13 -33 -35 -59 -61 -33 -7 7 -13 7 -17 1 -10 -17 5 -42 25
-42 10 0 30 -5 44 -12 19 -9 28 -9 37 0 7 7 25 12 40 12 41 0 37 28 -4 32 -23
2 -34 9 -36 22 -5 25 37 59 55 44 10 -8 13 -5 13 10 0 11 5 22 12 24 7 3 8 10
3 17 -6 11 -10 10 -17 -3 -5 -9 -22 -16 -38 -16 -23 0 -30 5 -30 19 0 11 5 23
11 26 6 5 4 11 -6 19 -29 21 4 130 34 112 7 -5 10 -15 6 -23 -4 -13 -3 -13 9
-4 7 6 21 9 30 5 9 -3 27 1 40 9 28 19 175 22 181 4 3 -7 6 -58 8 -115 2 -56
7 -105 11 -109 3 -3 -5 -21 -19 -39 -14 -18 -25 -35 -25 -38 0 -3 20 -6 45 -6
l45 0 0 -40 c0 -33 -3 -40 -20 -40 -13 0 -20 7 -20 20 0 13 -7 20 -20 20 -15
0 -20 -7 -20 -25 0 -24 3 -25 58 -25 78 0 91 -10 64 -48 l-21 -29 24 -11 c15
-7 28 -26 36 -53 7 -22 19 -43 26 -45 7 -2 20 -6 28 -9 25 -7 6 -37 -21 -32
-35 6 -32 -28 3 -45 40 -19 43 -48 4 -48 -55 0 -49 -30 12 -49 38 -13 47 -25
25 -35 -7 -3 -3 -3 8 -1 21 6 40 -17 29 -35 -3 -4 2 -11 11 -14 13 -5 15 -15
11 -45 -6 -44 6 -71 32 -71 26 0 32 -21 36 -128 3 -51 7 -97 10 -101 2 -5 16
-11 30 -13 l25 -5 0 3163 0 3164 -8800 0 -8800 0 0 -3680z m17290 3660 c0 -5
-4 -10 -10 -10 -5 0 -10 5 -10 10 0 6 5 10 10 10 6 0 10 -4 10 -10z m-9803
-106 c-3 -3 -12 -4 -19 -1 -8 3 -5 6 6 6 11 1 17 -2 13 -5z m3108 -163 c3 -5
1 -12 -5 -16 -5 -3 -10 1 -10 9 0 18 6 21 15 7z m-1345 -112 c0 -31 -4 -48
-10 -44 -5 3 -10 26 -10 51 0 24 5 44 10 44 6 0 10 -23 10 -51z m-986 -35 c9
-3 16 -17 16 -30 0 -21 -4 -24 -40 -24 -44 0 -61 19 -40 45 13 16 38 19 64 9z
m-4864 -119 c0 -8 -4 -15 -10 -15 -5 0 -10 7 -10 15 0 8 5 15 10 15 6 0 10 -7
10 -15z m-256 -10 c3 -9 0 -15 -9 -15 -9 0 -12 6 -9 15 4 8 7 15 9 15 2 0 5
-7 9 -15z m6363 -67 c-3 -8 -6 -5 -6 6 -1 11 2 17 5 13 3 -3 4 -12 1 -19z m13
-59 c0 -20 -15 -26 -24 -10 -8 13 4 42 15 35 5 -3 9 -14 9 -25z m-180 13 c0
-13 -12 -22 -22 -16 -10 6 -1 24 13 24 5 0 9 -4 9 -8z m1390 -37 c0 -8 -2 -15
-4 -15 -2 0 -6 7 -10 15 -3 8 -1 15 4 15 6 0 10 -7 10 -15z m-8082 -108 c6 -7
12 -26 14 -42 3 -29 1 -30 -39 -33 -41 -3 -43 -2 -43 24 0 47 44 80 68 51z
m4630 -48 c3 -17 -23 -33 -39 -23 -5 3 -9 14 -9 25 0 15 6 20 22 17 13 -2 24
-10 26 -19z m747 -37 c-2 -3 -12 -1 -22 2 -15 6 -15 9 -3 16 13 8 35 -8 25
-18z m-1499 -29 c-10 -10 -19 5 -10 18 6 11 8 11 12 0 2 -7 1 -15 -2 -18z
m5384 -183 c0 -33 -14 -40 -28 -12 -12 21 -5 42 14 42 9 0 14 -11 14 -30z
m-9896 4 c7 -19 -12 -47 -25 -38 -5 3 -9 16 -9 30 0 27 24 33 34 8z m8510 7
c8 -13 -4 -42 -15 -35 -12 7 -12 44 0 44 6 0 12 -4 15 -9z m-7594 -26 c10 -12
10 -21 2 -40 -15 -32 -27 -31 -63 4 -32 32 -37 43 -15 35 8 -3 17 -1 21 5 9
16 41 13 55 -4z m9337 -38 c-3 -18 -11 -54 -18 -82 -7 -27 -13 -127 -14 -221
-3 -201 -17 -254 -40 -149 l-7 30 -17 -24 c-12 -16 -21 -20 -25 -12 -10 16 13
211 29 246 8 17 23 70 35 119 27 119 74 196 57 93z m5009 -4 c-10 -10 -19 5
-10 18 6 11 8 11 12 0 2 -7 1 -15 -2 -18z m-206 -2 c0 -23 -28 -35 -46 -20
-19 15 -6 39 22 39 17 0 24 -6 24 -19z m-9590 -11 c27 -27 27 -80 1 -80 -39 0
-51 11 -51 49 0 56 16 65 50 31z m337 -52 c-3 -8 -6 -5 -6 6 -1 11 2 17 5 13
3 -3 4 -12 1 -19z m-787 -13 c0 -27 -25 -44 -40 -29 -15 15 0 54 21 54 14 0
19 -7 19 -25z m4330 -85 c0 -11 -4 -20 -9 -20 -14 0 -23 18 -16 30 10 17 25
11 25 -10z m300 -6 c0 -8 -7 -14 -15 -14 -15 0 -21 21 -9 33 10 9 24 -2 24
-19z m-910 -289 c0 -18 -5 -25 -20 -25 -20 0 -28 28 -13 43 15 16 33 6 33 -18z
m1315 -174 c16 -66 14 -111 -5 -111 -14 0 -22 32 -27 114 -7 97 7 96 32 -3z
m1082 -116 c-5 -40 -17 -41 -17 -1 0 23 4 35 10 31 6 -4 9 -17 7 -30z m-6626
-34 c9 -32 17 -41 38 -43 20 -2 27 -9 29 -30 2 -16 -2 -28 -8 -28 -8 0 -9 -10
-5 -30 4 -16 4 -30 2 -30 -19 0 -37 15 -37 30 0 13 -9 20 -27 22 -23 3 -29 9
-36 43 -11 55 -10 74 4 91 18 22 27 17 40 -25z m1699 -67 c0 -20 -5 -24 -30
-24 -25 0 -30 4 -30 25 0 28 29 49 47 33 7 -6 13 -21 13 -34z m-5962 -112 c2
-18 -2 -40 -9 -48 -13 -16 -54 -20 -44 -4 3 5 1 19 -5 30 -15 28 4 62 33 58
17 -2 23 -11 25 -36z m9806 -4 c-9 -90 -26 -184 -38 -218 -18 -46 -56 -211
-56 -241 0 -46 -95 -279 -114 -279 -14 0 1 67 49 215 26 77 55 178 66 225 11
47 26 112 34 145 8 33 19 81 25 108 9 44 26 87 34 87 3 0 2 -19 0 -42z
m-10054 -13 c-5 -6 -7 -15 -3 -18 3 -4 1 -7 -6 -7 -15 0 -25 26 -17 46 5 13 9
14 21 4 11 -9 12 -16 5 -25z m746 11 c15 -60 -33 -89 -76 -46 -25 25 -25 28 3
51 32 27 65 25 73 -5z m-589 -8 c-3 -8 -6 -5 -6 6 -1 11 2 17 5 13 3 -3 4 -12
1 -19z m331 0 c-4 -29 -38 -38 -38 -10 0 22 8 32 27 32 9 0 13 -8 11 -22z
m8403 -35 c14 -38 -3 -77 -31 -68 -16 5 -20 2 -20 -14 0 -36 -16 -23 -26 22
-15 69 -8 87 32 87 28 0 36 -5 45 -27z m3488 -183 c31 0 23 -113 -9 -130 -10
-6 -25 -22 -32 -38 -8 -16 -21 -27 -33 -27 -17 0 -20 6 -19 40 2 59 27 179 39
187 5 5 17 -1 27 -12 9 -11 21 -20 27 -20z m-3888 0 c15 0 10 -27 -7 -34 -28
-11 -44 -6 -44 12 0 24 10 34 28 27 7 -3 18 -5 23 -5z m4649 -35 c0 -14 -4
-25 -10 -25 -5 0 -10 11 -10 25 0 14 5 25 10 25 6 0 10 -11 10 -25z m-8205
-10 c0 -13 -8 -21 -22 -23 -17 -3 -23 2 -23 16 0 10 3 22 7 26 13 13 38 1 38
-19z m2293 -28 c2 -12 -3 -17 -17 -17 -15 0 -21 6 -21 21 0 25 33 22 38 -4z
m5395 -24 c-5 -13 -7 -13 -21 0 -8 8 -11 20 -7 27 10 16 35 -7 28 -27z
m-12938 -33 c-5 -8 -11 -8 -17 -2 -6 6 -7 16 -3 22 5 8 11 8 17 2 6 -6 7 -16
3 -22z m595 -8 c0 -9 3 -27 6 -39 5 -18 1 -23 -19 -28 -14 -4 -41 -2 -60 4
-27 9 -36 19 -41 42 -7 36 -1 50 17 43 8 -3 24 -1 38 4 29 12 59 -2 59 -26z
m-870 -47 c0 -8 -9 -15 -20 -15 -11 0 -20 7 -20 15 0 8 9 15 20 15 11 0 20 -7
20 -15z m9100 -5 c13 -25 -5 -69 -22 -52 -6 6 -17 8 -24 5 -9 -3 -14 2 -14 16
0 12 6 21 14 21 8 0 16 7 20 15 7 20 13 19 26 -5z m858 -196 c4 -25 -22 -49
-43 -40 -15 5 -21 47 -8 60 14 14 48 1 51 -20z m1987 10 c41 -16 61 -110 31
-143 -18 -20 -21 -57 -6 -66 6 -3 10 -13 10 -22 0 -28 -41 -103 -56 -103 -15
0 -19 35 -5 44 11 7 3 42 -15 71 -15 24 -16 194 -2 213 12 14 19 15 43 6z
m533 -62 c2 -48 0 -62 -11 -62 -15 0 -33 102 -21 121 15 25 29 -2 32 -59z
m493 31 c6 -6 11 -32 12 -59 2 -43 -1 -50 -25 -62 -16 -7 -28 -19 -28 -26 0
-18 -21 -35 -36 -29 -15 6 -19 68 -5 77 4 3 11 27 15 54 3 27 8 51 11 54 8 8
45 2 56 -9z m-336 -44 c7 -37 -13 -68 -35 -54 -14 9 -13 78 2 93 16 16 25 5
33 -39z m429 25 c10 -27 7 -59 -9 -80 -13 -16 -16 -17 -25 -4 -12 19 -13 42 0
74 11 29 25 34 34 10z m1221 -24 c0 -25 -5 -36 -17 -38 -15 -3 -18 4 -18 38 0
34 3 41 18 38 12 -2 17 -13 17 -38z m405 -11 c0 -31 -12 -49 -31 -49 -15 0
-19 7 -19 38 0 48 19 71 37 45 7 -9 13 -25 13 -34z m-1267 -29 c-12 -46 -58
-13 -48 35 2 11 4 25 5 30 0 6 11 -2 24 -17 16 -17 22 -35 19 -48z m87 36 c0
-14 -4 -27 -9 -30 -10 -7 -20 23 -14 42 8 21 23 13 23 -12z m-1193 -33 c-3
-10 -5 -2 -5 17 0 19 2 27 5 18 2 -10 2 -26 0 -35z m-2848 -47 c12 -14 5 -93
-10 -117 -6 -11 -13 -11 -26 -3 -18 11 -30 90 -19 120 7 18 40 18 55 0z m179
-24 c2 -13 0 -31 -4 -40 -3 -9 -7 -26 -8 -37 -1 -27 -21 -25 -21 2 -1 12 -4
25 -8 29 -9 9 -9 59 0 68 14 13 38 0 41 -22z m-5598 8 c0 -5 -4 -10 -10 -10
-5 0 -10 5 -10 10 0 6 5 10 10 10 6 0 10 -4 10 -10z m6090 -267 c1 -54 2 -109
3 -123 3 -38 -16 -37 -35 1 -13 28 -15 48 -8 105 6 62 23 114 35 114 3 0 5
-44 5 -97z m-1036 51 c20 -8 20 -28 1 -47 -29 -30 -80 8 -54 39 12 15 28 17
53 8z m114 -10 c25 -17 31 -49 7 -41 -8 4 -17 2 -21 -4 -8 -14 -34 9 -34 31 0
32 15 37 48 14z m-358 -24 c0 -33 -19 -40 -40 -15 -16 20 -5 45 20 45 16 0 20
-7 20 -30z m125 10 c7 -23 -12 -63 -26 -55 -10 7 -12 58 -2 68 11 12 21 8 28
-13z m4273 -52 c21 -21 13 -49 -25 -84 -42 -39 -48 -40 -61 -18 -11 20 4 95
21 106 18 12 52 9 65 -4z m1242 -34 c0 -17 -6 -24 -20 -24 -15 0 -20 7 -20 28
0 16 3 32 7 35 11 12 33 -14 33 -39z m-2030 16 c0 -11 -4 -20 -10 -20 -5 0
-10 9 -10 20 0 11 5 20 10 20 6 0 10 -9 10 -20z m945 -26 c0 -22 -5 -29 -20
-29 -23 0 -32 30 -14 51 18 22 34 11 34 -22z m-9840 8 l22 -18 -21 -10 c-28
-13 -46 -7 -46 15 0 34 13 38 45 13z m11305 -2 c0 -11 -7 -20 -15 -20 -8 0
-15 9 -15 20 0 11 7 20 15 20 8 0 15 -9 15 -20z m-5225 -63 c0 -26 -20 -25
-23 2 -3 16 1 22 10 19 7 -3 13 -12 13 -21z m-6037 0 c22 -14 3 -25 -43 -25
-40 1 -57 13 -40 30 8 7 68 4 83 -5z m5487 -47 c0 -20 -5 -25 -25 -25 -20 0
-26 6 -28 28 -3 26 -1 28 25 25 22 -2 28 -8 28 -28z m103 -11 c-5 -35 -28 -36
-28 -1 0 16 3 32 7 36 11 11 25 -10 21 -35z m-233 11 c7 -23 -2 -43 -16 -35
-12 8 -12 55 0 55 5 0 12 -9 16 -20z m-123 -32 c-13 -13 -26 8 -17 30 6 16 7
16 17 -1 7 -13 7 -22 0 -29z m1307 -21 c0 -21 -1 -21 -9 -2 -12 28 -12 37 0
30 6 -3 10 -16 9 -28z m4126 -131 c8 -23 6 -30 -9 -41 -27 -20 -46 -8 -46 29
0 18 3 36 7 40 14 14 38 0 48 -28z m245 20 c26 -32 -7 -87 -44 -73 -16 6 -23
66 -9 80 11 12 40 8 53 -7z m-870 -47 c0 -38 -24 -35 -28 4 -2 19 1 27 12 27
11 0 16 -10 16 -31z m-10471 -370 c27 -9 31 -16 31 -45 0 -27 4 -34 19 -34 28
0 45 -60 21 -75 -14 -9 -50 13 -50 32 0 12 -7 14 -31 9 -18 -3 -38 -1 -45 5
-17 14 -18 91 -2 107 15 15 17 15 57 1z m3069 -87 c2 -7 -3 -12 -12 -12 -9 0
-16 7 -16 16 0 17 22 14 28 -4z m2552 -47 c25 -13 30 -22 30 -53 0 -37 -22
-82 -40 -82 -15 0 -41 57 -44 98 -6 57 3 63 54 37z m-2461 -21 c3 -16 1 -17
-13 -5 -19 16 -21 34 -3 29 6 -3 14 -13 16 -24z m2375 10 c14 -36 4 -114 -14
-114 -5 0 -22 12 -39 26 -25 21 -31 33 -31 65 0 39 0 39 39 39 26 0 41 -5 45
-16z m1502 -185 c-3 -25 -16 -79 -30 -119 -15 -43 -22 -78 -17 -83 7 -7 56 10
78 27 1 0 -2 21 -7 46 -7 40 -7 43 6 25 8 -10 12 -27 9 -36 -10 -31 13 -30 86
1 39 16 76 30 82 30 5 0 36 10 69 22 49 17 63 28 83 63 14 23 25 48 25 56 1
20 46 73 53 61 4 -5 2 -37 -4 -71 -12 -65 -8 -81 14 -63 8 7 17 9 20 5 11 -10
8 -63 -3 -63 -5 0 -10 -13 -10 -30 0 -33 -14 -39 -28 -14 -9 15 -19 14 -123
-10 -63 -15 -136 -35 -164 -46 -93 -34 -245 -113 -245 -126 0 -8 -11 -16 -25
-20 -14 -3 -25 -10 -25 -14 0 -4 -19 -20 -42 -36 -24 -15 -53 -38 -64 -51 -12
-13 -31 -23 -42 -23 -12 0 -30 -13 -42 -30 -12 -16 -27 -30 -33 -30 -24 0 -87
-21 -99 -33 -16 -15 -99 -57 -113 -57 -18 -1 -57 -39 -50 -50 4 -6 -1 -20 -10
-30 -9 -10 -18 -25 -19 -33 -1 -9 -31 -41 -66 -73 -60 -52 -110 -121 -110
-151 0 -6 -18 -32 -40 -58 -22 -25 -54 -67 -72 -93 -17 -26 -38 -51 -45 -55
-7 -4 -13 -13 -13 -18 0 -6 7 -3 16 5 8 9 21 16 27 16 7 -1 6 -6 -4 -13 -8 -7
-28 -37 -43 -67 -57 -111 -74 -141 -90 -158 -9 -10 -16 -22 -16 -27 0 -4 9 4
21 19 37 47 69 20 36 -29 -8 -11 -21 -47 -31 -80 -10 -33 -24 -78 -31 -100 -8
-22 -21 -67 -30 -100 -10 -33 -22 -63 -28 -67 -6 -4 -15 -38 -20 -75 -15 -131
-19 -153 -28 -153 -5 0 -9 16 -9 36 0 40 -16 77 -30 69 -5 -3 -7 -42 -5 -88 3
-63 8 -83 20 -85 8 -2 15 -12 15 -21 0 -10 11 -38 24 -62 14 -24 32 -66 41
-94 21 -64 45 -114 68 -137 9 -10 17 -22 17 -28 0 -5 6 -10 14 -10 7 0 20 -7
27 -17 13 -15 12 -15 -8 -4 -20 10 -23 9 -29 -14 -9 -36 3 -114 21 -142 13
-20 13 -22 0 -17 -8 4 -15 14 -15 23 -1 14 -2 13 -11 -3 -9 -14 -7 -24 10 -47
l21 -29 -39 -6 c-53 -8 -63 -32 -65 -146 -1 -71 4 -110 21 -163 25 -80 49
-119 56 -95 60 189 93 354 103 510 7 94 6 102 -13 115 -12 8 -24 27 -28 42 -6
25 -48 122 -80 183 -7 14 -10 31 -8 38 6 15 -28 102 -39 102 -5 0 -8 11 -8 25
0 14 -3 25 -8 25 -4 0 -9 30 -10 68 -1 37 -5 78 -8 92 -2 14 2 43 11 65 l15
40 -1 -95 c0 -121 2 -137 19 -136 9 1 25 -28 43 -78 30 -85 49 -115 49 -78 0
15 6 22 20 22 25 0 41 37 39 89 -2 44 43 152 85 206 18 22 38 52 45 67 17 33
74 99 68 78 -10 -35 -100 -289 -119 -335 -30 -75 -50 -222 -39 -280 3 -13 27
67 51 170 36 150 124 373 267 675 49 103 80 180 144 353 23 63 41 96 66 117
44 39 70 40 34 1 -15 -15 -36 -59 -47 -97 -19 -60 -71 -303 -94 -434 -4 -25
-15 -81 -25 -125 -41 -195 -57 -274 -64 -335 -4 -36 -13 -75 -19 -87 -7 -12
-12 -32 -12 -45 0 -13 -11 -57 -24 -98 -78 -236 -111 -331 -134 -385 -13 -33
-31 -82 -39 -110 -8 -27 -24 -77 -37 -110 -39 -100 -55 -157 -67 -235 -15 -96
-6 -247 16 -290 9 -18 56 -74 104 -124 127 -132 196 -218 273 -341 18 -27 46
-66 62 -85 31 -35 51 -71 102 -185 24 -51 28 -56 32 -35 2 14 9 32 16 40 22
26 27 50 11 50 -8 0 -15 5 -15 11 0 6 6 9 14 6 7 -3 19 0 25 6 8 8 14 2 22
-21 6 -19 16 -29 24 -26 8 3 16 -4 20 -18 4 -13 13 -30 20 -38 7 -8 15 -28 19
-45 3 -16 8 -40 11 -52 3 -12 1 -25 -5 -28 -12 -8 -13 -55 -1 -55 15 0 97 49
116 70 16 17 45 28 45 16 0 -14 -137 -133 -165 -145 -19 -7 -35 -19 -35 -26 0
-15 -22 -25 -55 -25 -12 0 -26 -7 -29 -16 -4 -10 -14 -14 -26 -11 -12 3 -27
-2 -36 -11 -10 -9 -32 -15 -53 -15 -42 1 -59 -6 -40 -18 10 -6 5 -9 -16 -10
-45 -3 -57 -4 -90 -13 -99 -24 -145 -41 -145 -52 0 -7 -19 -18 -41 -24 -23 -6
-49 -15 -58 -20 -29 -14 -145 -52 -183 -60 -21 -4 -43 -12 -50 -17 -7 -6 -28
-14 -46 -18 -18 -4 -52 -18 -75 -31 -23 -13 -54 -24 -69 -24 -17 0 -33 -8 -40
-20 -7 -11 -19 -20 -26 -20 -8 0 -45 -16 -83 -35 -39 -19 -88 -38 -109 -41
-23 -4 -40 -12 -40 -20 0 -15 -54 -44 -82 -44 -11 0 -22 -9 -25 -20 -3 -11
-10 -20 -15 -20 -5 0 -20 -24 -33 -52 l-24 -53 0 43 c-1 33 4 47 24 64 24 21
34 48 17 48 -4 0 -14 -6 -21 -12 -10 -11 -16 -9 -31 10 -10 12 -21 22 -25 22
-4 0 -27 -13 -52 -30 -24 -16 -49 -30 -56 -30 -7 0 -27 25 -45 55 -27 45 -51
66 -145 128 -248 163 -268 174 -347 188 -126 22 -161 38 -330 160 -25 18 -108
75 -185 126 -77 51 -146 98 -153 104 -17 14 -110 72 -222 139 -139 83 -350
219 -368 236 -9 9 -50 42 -91 73 -42 31 -78 58 -81 62 -25 28 -302 208 -400
259 -141 74 -240 158 -240 204 0 14 4 26 8 26 21 0 58 123 102 335 12 61 24
116 26 123 2 6 17 12 34 12 17 0 43 6 59 14 60 31 158 161 227 301 43 86 57
194 51 390 -4 152 -10 165 -91 207 -38 20 -48 20 -133 2 -32 -6 -48 9 -20 19
9 3 9 7 0 19 -11 12 -9 18 6 32 11 10 25 31 31 47 7 16 18 29 24 30 32 3 206
-4 271 -10 41 -4 75 -3 75 2 0 5 7 1 16 -8 12 -11 20 -13 27 -6 19 19 85 13
96 -7 12 -22 75 -22 128 -1 27 11 37 11 67 -3 18 -9 43 -14 55 -11 19 5 26 -4
22 -29 0 -5 8 -8 19 -8 11 0 23 -6 26 -14 6 -16 57 -14 78 3 8 7 23 10 33 7
12 -4 28 3 45 19 18 17 39 25 63 25 38 0 40 -2 25 -31 -9 -16 -7 -19 10 -19
17 0 20 -4 15 -21 -8 -23 3 -20 38 10 18 15 18 16 -4 21 -32 8 -36 37 -10 62
26 23 56 30 95 22 37 -8 16 -24 -32 -24 -29 0 -31 -2 -21 -19 9 -13 9 -26 1
-49 -7 -19 -7 -34 -1 -37 5 -4 9 -15 9 -26 0 -23 -37 -41 -60 -29 -8 5 -28 6
-43 3 l-28 -6 20 -19 c15 -14 26 -16 38 -9 19 9 115 12 146 4 11 -3 17 -14 17
-33 0 -23 -5 -29 -25 -32 -14 -2 -26 -7 -26 -13 0 -13 60 -25 67 -14 3 5 15 9
27 10 19 0 19 2 -5 11 -20 7 -28 17 -28 34 0 14 6 26 13 28 6 2 27 8 45 14
l33 11 -1 -47 c-3 -80 -4 -78 35 -74 19 2 35 8 35 12 0 5 3 15 6 24 5 12 -1
16 -24 16 -40 0 -50 17 -19 31 16 7 23 17 20 29 -3 10 0 20 5 24 15 9 35 -22
34 -54 0 -16 4 -32 9 -35 11 -8 12 -45 1 -45 -5 0 -14 -11 -20 -25 -10 -22
-18 -26 -54 -25 -24 1 -55 -1 -69 -5 -17 -5 -31 -2 -41 9 -14 14 -18 14 -28 1
-15 -18 -42 -19 -58 -3 -9 9 -17 9 -36 -1 -14 -8 -36 -10 -53 -7 -38 9 -67
-18 -33 -29 12 -4 26 -3 32 3 10 10 55 4 64 -9 3 -5 14 -4 26 2 26 14 68 3 68
-18 0 -14 3 -13 16 5 17 25 42 28 69 8 16 -12 21 -11 33 1 16 16 51 8 68 -15
9 -13 13 -12 26 7 16 22 17 22 42 6 14 -10 26 -21 26 -26 0 -10 -48 -24 -70
-20 -8 1 2 -10 23 -25 43 -32 48 -61 12 -70 -14 -3 -25 -9 -25 -13 0 -4 11
-13 25 -19 32 -15 31 -42 -2 -66 -14 -11 -23 -15 -20 -9 4 6 0 16 -9 23 -8 7
-13 19 -10 26 3 7 1 16 -5 20 -6 3 -8 13 -5 21 11 26 -6 35 -22 12 -11 -16
-12 -24 -4 -27 16 -5 15 -59 0 -65 -21 -7 -58 11 -58 28 0 9 5 25 11 36 8 15
7 24 -2 35 -10 13 -14 13 -29 -1 -21 -19 -54 -19 -70 0 -10 12 -16 13 -27 4
-7 -7 -27 -13 -43 -14 -17 -1 -42 -2 -57 -3 l-27 -2 23 -16 c19 -14 27 -14 46
-4 28 15 55 7 62 -19 4 -17 6 -17 28 5 31 31 67 22 63 -15 -1 -14 1 -32 5 -39
5 -6 5 -17 2 -22 -4 -7 8 -8 37 -4 24 4 45 11 46 16 6 14 22 9 22 -7 0 -8 6
-12 13 -9 8 3 26 0 41 -5 21 -9 25 -14 18 -28 -5 -10 -7 -23 -5 -30 3 -7 -13
-4 -37 8 -40 20 -42 20 -56 2 -18 -24 -17 -33 2 -33 12 0 15 -7 12 -30 -2 -16
0 -32 6 -34 6 -2 -2 -5 -19 -6 -41 -3 -59 0 -63 11 -7 17 -22 9 -22 -12 0 -11
4 -18 9 -14 5 3 12 1 16 -5 8 -14 55 -13 55 1 0 6 7 9 15 6 8 -4 17 -2 19 2 3
5 16 6 30 4 13 -3 27 0 30 6 11 17 26 13 20 -4 -8 -21 12 -19 35 4 12 12 23
16 32 10 12 -7 12 -9 0 -9 -10 0 -11 -3 -3 -13 11 -12 32 -13 117 -6 22 1 46
0 52 -4 7 -5 27 0 44 8 28 15 33 15 47 2 10 -11 21 -13 38 -7 13 5 37 5 59 -1
20 -6 53 -8 73 -4 21 4 56 7 79 7 39 1 42 3 48 36 4 23 2 37 -6 42 -8 5 -5 10
10 15 11 3 21 11 21 16 0 5 10 9 23 9 l22 0 -24 19 c-19 14 -22 24 -17 45 3
14 13 26 21 26 20 0 19 20 -2 35 -17 13 -19 23 -24 112 -2 39 2 58 15 72 17
19 17 21 -1 45 -10 14 -28 30 -39 36 -18 10 -20 15 -10 36 6 13 17 24 24 24 6
0 12 7 12 15 0 8 -7 15 -15 15 -25 0 -17 24 15 45 16 11 30 23 30 28 0 4 7 7
15 7 8 0 15 9 15 20 0 15 -7 20 -24 20 -32 0 -42 17 -24 38 22 25 33 46 21 39
-6 -4 -16 -1 -21 6 -19 23 8 59 46 62 28 2 32 -1 32 -21 0 -12 5 -26 11 -30 8
-4 7 -9 -2 -15 -8 -5 -9 -9 -3 -9 6 0 20 11 32 25 12 14 35 28 51 31 19 4 31
14 35 28 3 12 13 22 23 23 115 11 150 10 170 -2 18 -12 23 -12 33 0 7 8 22 15
35 15 13 0 27 10 35 25 11 21 20 25 44 23 27 -3 31 -7 32 -33 1 -59 2 -61 23
-40 11 11 40 81 66 155 26 74 68 172 93 218 81 144 95 174 95 206 0 17 5 34
10 38 6 4 -3 21 -22 43 -38 44 -34 56 7 26 38 -27 43 -26 72 4 20 22 22 30 16
85 -4 34 -10 69 -13 78 -6 16 -5 16 13 0 19 -17 23 -15 98 61 50 50 89 81 107
85 28 5 130 74 144 96 3 5 8 41 10 79 3 74 27 170 52 208 9 13 17 22 19 20 2
-2 -5 -50 -16 -108 -19 -100 -25 -159 -16 -159 3 0 26 11 52 25 26 14 54 25
63 25 9 0 42 16 74 35 32 19 61 35 65 35 4 0 21 7 37 16 17 9 69 36 117 61 48
25 96 54 107 65 22 19 28 48 12 48 -13 0 1 46 34 116 38 81 51 119 66 204 l13
75 8 -80 c5 -44 7 -101 4 -126z m3017 160 c-13 -11 -79 -18 -93 -9 -16 10 -6
40 14 40 8 0 16 -6 19 -12 3 -10 10 -8 23 5 18 17 20 17 31 0 7 -9 10 -20 6
-24z m-4916 23 c7 -4 12 -28 11 -55 -1 -52 -16 -61 -50 -30 -17 16 -25 73 -11
86 9 9 35 9 50 -1z m261 -11 c-2 -3 -10 -23 -18 -43 -25 -66 -81 -40 -64 29 4
14 15 23 32 25 30 4 54 -1 50 -11z m4170 -3 c2 -12 -3 -18 -17 -18 -11 0 -23
-4 -26 -10 -9 -15 -22 -12 -29 6 -4 9 -1 23 5 31 16 19 63 13 67 -9z m620 6
c34 -17 42 -38 17 -48 -9 -3 -15 0 -15 9 0 8 -9 15 -20 15 -13 0 -20 7 -20 20
0 24 -1 24 38 4z m312 1 c10 -12 10 -15 -4 -15 -9 0 -16 7 -16 15 0 8 2 15 4
15 2 0 9 -7 16 -15z m-4755 -6 c11 -16 -4 -59 -20 -59 -16 0 -18 12 -9 48 7
24 19 29 29 11z m-485 -19 c0 -11 -4 -20 -10 -20 -5 0 -10 9 -10 20 0 11 5 20
10 20 6 0 10 -9 10 -20z m3500 0 c0 -11 -4 -20 -9 -20 -11 0 -22 26 -14 34 12
12 23 5 23 -14z m-2172 -28 c3 -16 -2 -22 -17 -22 -24 0 -33 13 -25 35 9 23
38 14 42 -13z m162 3 c0 -8 -7 -15 -15 -15 -16 0 -20 12 -8 23 11 12 23 8 23
-8z m1760 3 c-1 -23 -27 -48 -49 -48 -24 0 -28 22 -6 40 8 7 15 9 15 4 0 -4 5
-3 12 4 16 16 28 15 28 0z m-8975 -48 c3 -5 2 -10 -4 -10 -5 0 -13 5 -16 10
-3 6 -2 10 4 10 5 0 13 -4 16 -10z m13015 -85 c0 -8 -9 -15 -20 -15 -11 0 -20
7 -20 15 0 8 9 15 20 15 11 0 20 -7 20 -15z m-8005 -155 c-3 -5 -24 -10 -46
-10 -21 0 -39 5 -39 10 0 6 21 10 46 10 27 0 43 -4 39 -10z m4885 -46 c0 -17
-22 -14 -28 4 -2 7 3 12 12 12 9 0 16 -7 16 -16z m-869 -57 c-6 -6 -11 -26
-11 -44 0 -40 -19 -45 -21 -5 -2 41 1 51 19 73 15 17 17 18 20 3 2 -9 -1 -21
-7 -27z m3059 -43 c10 -25 -1 -64 -18 -64 -27 1 -46 43 -32 71 15 27 39 24 50
-7z m-4992 -55 c-3 -8 -12 1 -22 21 l-17 35 22 -21 c12 -12 19 -28 17 -35z
m1879 19 c-3 -7 -5 -2 -5 12 0 14 2 19 5 13 2 -7 2 -19 0 -25z m-140 -58 c11
-34 17 -77 15 -113 -3 -54 -5 -58 -25 -55 -21 3 -22 7 -19 74 2 54 -1 76 -13
87 -9 10 -11 17 -4 19 6 2 12 16 12 30 3 36 13 23 34 -42z m-3997 -5 c0 -8 -4
-15 -10 -15 -5 0 -10 7 -10 15 0 8 5 15 10 15 6 0 10 -7 10 -15z m1752 -67
c-13 -13 -24 5 -16 27 7 16 8 16 17 0 6 -11 6 -20 -1 -27z m-106 -4 c-5 -13
-10 -14 -18 -6 -6 6 -8 18 -4 28 5 13 10 14 18 6 6 -6 8 -18 4 -28z m-106 16
c0 -5 -2 -10 -4 -10 -3 0 -8 5 -11 10 -3 6 -1 10 4 10 6 0 11 -4 11 -10z
m5475 -25 c0 -28 -29 -25 -33 3 -3 19 0 23 15 20 10 -2 18 -12 18 -23z m650
-5 c0 -36 -29 -33 -33 3 -3 23 0 28 15 25 12 -2 18 -12 18 -28z m-3462 -31 c8
-29 -22 -24 -33 7 -6 14 -10 30 -10 36 0 17 37 -20 43 -43z m-103 6 c7 -9 8
-15 2 -15 -5 0 -12 7 -16 15 -3 8 -4 15 -2 15 2 0 9 -7 16 -15z m-5148 -77
c-8 -33 -8 -33 -21 -10 -11 20 -10 27 5 44 22 24 28 11 16 -34z m6928 -3 c0
-34 -4 -45 -15 -45 -13 0 -15 7 -9 38 12 67 24 71 24 7z m-6170 -5 c0 -11 -6
-20 -14 -20 -18 0 -29 16 -21 30 11 18 35 11 35 -10z m175 0 c3 -5 -1 -10 -9
-10 -9 0 -16 5 -16 10 0 6 4 10 9 10 6 0 13 -4 16 -10z m5985 -75 c0 -8 -4
-15 -10 -15 -5 0 -10 7 -10 15 0 8 5 15 10 15 6 0 10 -7 10 -15z m-2690 -15
c0 -5 -17 -14 -38 -20 -22 -5 -47 -19 -57 -30 -10 -11 -25 -20 -34 -20 -9 0
-29 -9 -46 -20 -29 -19 -95 -28 -95 -12 1 22 42 52 95 70 123 41 175 51 175
32z m-2887 -153 c3 -94 1 -120 -10 -124 -8 -3 -17 -2 -21 2 -11 11 -8 239 3
247 19 14 24 -8 28 -125z m-1365 21 c-3 -35 -23 -42 -21 -8 2 36 3 40 14 40 6
0 9 -14 7 -32z m3867 12 c-3 -5 -15 -10 -26 -10 -11 0 -17 5 -14 10 3 6 15 10
26 10 11 0 17 -4 14 -10z m4685 -5 c0 -8 -6 -15 -14 -15 -20 0 -29 17 -14 23
22 9 28 7 28 -8z m290 5 c0 -5 -4 -10 -9 -10 -6 0 -13 5 -16 10 -3 6 1 10 9
10 9 0 16 -4 16 -10z m-12883 -22 c-3 -8 -6 -5 -6 6 -1 11 2 17 5 13 3 -3 4
-12 1 -19z m5235 -13 c0 -5 -5 -11 -11 -13 -6 -2 -11 4 -11 13 0 9 5 15 11 13
6 -2 11 -8 11 -13z m7200 -47 c-7 -7 -12 -8 -12 -2 0 14 12 26 19 19 2 -3 -1
-11 -7 -17z m268 1 c0 -5 -9 -9 -20 -9 -19 0 -26 11 -14 23 8 8 34 -3 34 -14z
m-7076 -35 c15 -39 0 -56 -33 -35 -10 7 -11 13 -2 30 14 25 27 27 35 5z m7023
-10 c-3 -4 -14 -3 -24 0 -15 6 -15 8 -3 16 16 10 39 -4 27 -16z m57 -40 c9
-22 -1 -34 -29 -34 -32 0 -42 20 -20 37 25 17 41 17 49 -3z m-106 -12 c2 -7
-6 -12 -17 -12 -21 0 -27 11 -14 24 9 9 26 2 31 -12z m-6958 -8 c0 -8 -4 -12
-10 -9 -5 3 -10 10 -10 16 0 5 5 9 10 9 6 0 10 -7 10 -16z m6870 6 c0 -5 -7
-10 -15 -10 -8 0 -15 5 -15 10 0 6 7 10 15 10 8 0 15 -4 15 -10z m-11855 -20
c3 -6 -1 -7 -9 -4 -18 7 -21 14 -7 14 6 0 13 -4 16 -10z m11755 -66 c0 -11 -5
-14 -16 -10 -9 3 -18 6 -20 6 -3 0 -2 5 1 10 10 16 35 12 35 -6z m98 -7 c2
-12 -3 -17 -17 -17 -12 0 -21 6 -21 13 0 31 32 34 38 4z m100 1 c3 -13 -3 -18
-22 -18 -27 0 -41 14 -31 31 10 16 49 6 53 -13z m-12115 -35 c5 1 12 -4 14
-10 3 -9 -6 -13 -26 -13 -17 0 -31 5 -31 11 0 6 -7 4 -15 -4 -13 -14 -55 -13
-55 1 0 17 37 28 69 21 19 -4 39 -7 44 -6z m-283 -3 c0 -5 -7 -10 -16 -10 -8
0 -12 5 -9 10 3 6 10 10 16 10 5 0 9 -4 9 -10z m160 -4 c0 -20 -16 -29 -41
-21 -16 5 -18 10 -8 21 15 18 49 18 49 0z m201 -9 c-13 -13 -26 -3 -16 12 3 6
11 8 17 5 6 -4 6 -10 -1 -17z m65 -4 c-10 -10 -19 5 -10 18 6 11 8 11 12 0 2
-7 1 -15 -2 -18z m59 17 c-3 -5 -14 -10 -23 -9 -14 0 -13 2 3 9 27 11 27 11
20 0z m9795 -6 c0 -8 -5 -12 -10 -9 -6 4 -8 11 -5 16 9 14 15 11 15 -7z m1928
-47 c2 -11 -3 -17 -17 -17 -25 0 -38 19 -20 31 19 12 33 6 37 -14z m98 11 c4
-6 -1 -17 -12 -25 -15 -11 -20 -11 -32 1 -8 8 -11 19 -8 25 9 14 43 14 52 -1z
m92 -9 c2 -9 -5 -19 -14 -23 -21 -8 -50 17 -39 34 10 16 49 8 53 -11z m-11943
-3 c17 -8 39 -18 50 -22 18 -6 16 -8 -10 -14 -16 -4 -34 -8 -40 -10 -25 -6
-43 2 -48 20 -4 16 -11 19 -36 14 -19 -4 -37 -2 -46 6 -10 8 -15 9 -15 2 0
-16 -212 -11 -217 5 -7 19 322 17 362 -1z m11563 2 c-7 -19 -38 -22 -38 -4 0
10 9 16 21 16 12 0 19 -5 17 -12z m102 -4 c0 -11 -8 -14 -27 -12 -39 4 -42 28
-4 28 21 0 31 -5 31 -16z m1102 -6 c-9 -9 -15 -9 -24 0 -9 9 -7 12 12 12 19 0
21 -3 12 -12z m-1762 -21 c0 -6 6 -3 13 8 17 22 37 12 37 -19 0 -30 -10 -39
-28 -23 -12 9 -16 9 -19 0 -3 -7 -11 -13 -19 -13 -15 0 -30 43 -20 59 8 12 36
3 36 -12z m-11225 -17 c-3 -5 -15 -10 -26 -10 -10 0 -19 5 -19 10 0 6 12 10
26 10 14 0 23 -4 19 -10z m80 0 c-3 -5 -17 -10 -31 -10 -13 0 -24 5 -24 10 0
6 14 10 31 10 17 0 28 -4 24 -10z m57 -2 c-17 -8 -26 -8 -34 0 -9 9 -4 12 23
11 32 0 33 -1 11 -11z m4083 -8 c3 -6 -1 -13 -10 -16 -19 -8 -30 0 -20 15 8
14 22 14 30 1z m5833 -15 c-3 -27 -23 -31 -24 -5 -1 20 5 30 17 30 6 0 9 -11
7 -25z m1296 15 c7 0 13 -12 14 -28 0 -15 2 -34 4 -42 2 -9 -6 -16 -19 -18
-24 -3 -32 13 -11 20 8 3 4 17 -12 43 -20 33 -21 38 -6 32 10 -4 23 -7 30 -7z
m-1339 -10 c3 -5 1 -10 -4 -10 -6 0 -11 5 -11 10 0 6 2 10 4 10 3 0 8 -4 11
-10z m1874 -13 c13 -16 -4 -37 -31 -37 -21 0 -25 35 -5 43 20 9 24 8 36 -6z
m96 -12 c0 -27 -49 -34 -59 -9 -8 20 10 35 39 32 12 -2 20 -11 20 -23z m89 16
c10 -16 -5 -41 -24 -41 -23 0 -34 16 -26 35 6 16 42 20 50 6z m99 -5 c7 -19
-12 -36 -40 -36 -22 0 -33 27 -16 43 12 12 51 7 56 -7z m-12087 -25 c-8 -13
-56 -15 -56 -3 0 13 44 31 54 22 4 -5 5 -13 2 -19z m64 14 c0 -8 -4 -15 -10
-15 -5 0 -10 7 -10 15 0 8 5 15 10 15 6 0 10 -7 10 -15z m11555 5 c-3 -5 -13
-10 -21 -10 -8 0 -14 5 -14 10 0 6 9 10 21 10 11 0 17 -4 14 -10z m85 -4 c0
-15 -24 -28 -34 -19 -13 14 -5 33 14 33 11 0 20 -6 20 -14z m1280 -6 c0 -5 -4
-10 -10 -10 -5 0 -10 5 -10 10 0 6 5 10 10 10 6 0 10 -4 10 -10z m-8845 -95
c0 -28 -29 -25 -33 3 -3 19 0 23 15 20 10 -2 18 -12 18 -23z m7475 5 c0 -5
-11 -10 -25 -10 -14 0 -25 5 -25 10 0 6 11 10 25 10 14 0 25 -4 25 -10z m1380
0 c0 -5 -9 -10 -21 -10 -11 0 -17 5 -14 10 3 6 13 10 21 10 8 0 14 -4 14 -10z
m-15490 -15 c0 -8 -4 -15 -10 -15 -5 0 -10 7 -10 15 0 8 5 15 10 15 6 0 10 -7
10 -15z m12468 -16 c-1 -27 -18 -55 -18 -29 0 6 -11 15 -25 20 -41 16 -32 33
19 36 21 2 24 -3 24 -27z m-12624 -79 c3 -53 1 -102 -4 -110 -6 -10 -10 24
-10 99 0 63 2 112 4 110 2 -2 7 -47 10 -99z m12542 76 c3 -23 -20 -15 -24 8
-3 11 1 17 9 14 7 -2 13 -12 15 -22z m-4012 8 c18 -7 22 -49 6 -59 -6 -4 -17
-2 -24 4 -9 7 -16 7 -24 -1 -15 -15 -43 -2 -39 19 6 40 37 54 81 37z m-1704
-19 c0 -8 -4 -15 -9 -15 -13 0 -22 16 -14 24 11 11 23 6 23 -9z m120 5 c0 -5
-7 -10 -16 -10 -8 0 -12 5 -9 10 3 6 10 10 16 10 5 0 9 -4 9 -10z m7218 -41
c-2 -6 -8 -10 -13 -10 -5 0 -11 4 -13 10 -2 6 4 11 13 11 9 0 15 -5 13 -11z
m1582 1 c0 -5 -7 -10 -16 -10 -8 0 -12 5 -9 10 3 6 10 10 16 10 5 0 9 -4 9
-10z m-15644 -47 c-11 -11 -17 4 -9 23 7 18 8 18 11 1 2 -10 1 -21 -2 -24z
m6828 19 c2 -4 -3 -18 -13 -30 -17 -23 -17 -23 -35 -3 -10 11 -15 25 -11 30 7
13 51 15 59 3z m96 -11 c0 -22 -15 -35 -30 -26 -7 4 -7 13 0 26 14 25 30 25
30 0z m50 -11 c0 -33 -11 -38 -30 -15 -15 18 -6 45 15 45 10 0 15 -10 15 -30z
m140 21 c0 -11 -39 -41 -52 -41 -18 0 -6 31 15 40 29 12 37 12 37 1z m87 3
c-3 -3 -12 -4 -19 -1 -8 3 -5 6 6 6 11 1 17 -2 13 -5z m70 -21 c-2 -21 -8 -29
-25 -31 -20 -3 -22 0 -18 25 2 15 5 29 5 31 1 1 10 2 20 2 15 0 19 -6 18 -27z
m433 18 c0 -21 -13 -41 -26 -41 -8 0 -14 5 -14 10 0 6 5 10 10 10 6 0 10 7 10
15 0 8 5 15 10 15 6 0 10 -4 10 -9z m-269 -24 c-13 -13 -26 -3 -16 12 3 6 11
8 17 5 6 -4 6 -10 -1 -17z m72 6 c24 -86 17 -104 -22 -66 -24 24 -27 32 -19
56 11 30 34 36 41 10z m119 -18 c-12 -22 -27 -2 -18 22 5 12 10 13 17 6 7 -7
8 -17 1 -28z m131 -6 c5 -19 13 -38 18 -43 13 -14 11 -26 -5 -26 -25 0 -53 60
-47 103 3 21 26 -3 34 -34z m72 15 c-8 -8 -19 -23 -24 -32 -7 -13 -13 -14 -21
-6 -18 18 -7 47 20 54 33 9 44 2 25 -16z m-255 -10 c0 -31 -23 -28 -28 4 -2
15 2 22 12 22 11 0 16 -9 16 -26z m624 -13 c8 -12 -20 -22 -39 -15 -19 8 -9
24 15 24 10 0 21 -4 24 -9z m-111 -8 c-7 -2 -21 -2 -30 0 -10 3 -4 5 12 5 17
0 24 -2 18 -5z m207 -3 c0 -5 -4 -10 -9 -10 -5 0 -7 -9 -4 -20 8 -30 -3 -24
-21 10 -14 29 -14 30 10 30 13 0 24 -4 24 -10z m-1475 -19 c3 -8 1 -17 -5 -21
-6 -4 -8 -14 -4 -23 9 -24 -13 -21 -26 2 -17 33 -12 60 10 58 11 -1 22 -8 25
-16z m295 9 c0 -5 -5 -10 -11 -10 -5 0 -7 5 -4 10 3 6 8 10 11 10 2 0 4 -4 4
-10z m148 -17 c8 -3 8 -53 1 -53 -16 0 -24 5 -25 15 0 6 -2 16 -2 23 -1 9 -9
11 -22 7 -14 -4 -20 -2 -20 8 0 21 21 26 45 13 11 -6 21 -12 23 -13z m8379 1
c-9 -9 -28 6 -21 18 4 6 10 6 17 -1 6 -6 8 -13 4 -17z m-8670 -27 c2 -42 -19
-49 -25 -9 -4 26 -15 28 -32 7 -10 -12 -15 -13 -21 -4 -14 24 8 47 43 45 31
-1 33 -4 35 -39z m108 23 c3 -5 -3 -10 -15 -10 -12 0 -18 5 -15 10 3 6 10 10
15 10 5 0 12 -4 15 -10z m266 -53 c-11 -11 -41 -3 -41 11 0 5 12 7 26 4 17 -3
22 -8 15 -15z m349 13 c0 -5 -4 -10 -10 -10 -5 0 -10 5 -10 10 0 6 5 10 10 10
6 0 10 -4 10 -10z m-934 -21 c7 -12 -15 -31 -28 -23 -4 3 -8 12 -8 20 0 17 26
19 36 3z m8890 -4 c4 -8 17 -15 30 -15 31 0 42 -26 21 -48 -13 -12 -23 -14
-44 -6 -16 5 -28 16 -28 24 0 8 -7 21 -15 27 -13 11 -13 14 0 23 21 14 30 12
36 -5z m-8677 -57 c6 -15 5 -26 -3 -33 -6 -5 -10 -18 -8 -29 2 -10 -1 -23 -7
-29 -8 -8 -11 -6 -11 6 0 9 -4 17 -10 17 -5 0 -10 -7 -10 -15 0 -29 -19 -14
-26 20 -6 34 -24 49 -24 21 0 -16 -21 -26 -57 -26 -41 0 -25 33 21 42 21 5 44
15 50 22 10 13 33 22 64 25 7 0 17 -9 21 -21z m86 12 c3 -5 13 -7 23 -4 16 5
16 5 0 -9 -20 -16 -24 -42 -8 -52 7 -4 7 -13 0 -26 -6 -11 -15 -17 -21 -14 -5
4 -6 11 -3 17 4 6 -4 19 -17 28 -20 16 -22 21 -11 44 12 27 26 33 37 16z m212
-17 c-2 -16 -9 -28 -15 -28 -7 0 -12 3 -12 8 0 4 0 16 0 27 0 11 7 20 15 20
11 0 15 -8 12 -27z m82 0 c0 -25 -1 -25 -8 -8 -5 11 -7 23 -4 28 8 14 13 7 12
-20z m101 8 c0 -5 -11 -16 -24 -25 -26 -17 -42 -7 -32 19 6 16 56 21 56 6z
m80 -22 c0 -17 -3 -18 -20 -9 -20 11 -25 22 -14 33 11 11 34 -5 34 -24z
m-1320 17 c0 -3 -4 -8 -10 -11 -5 -3 -10 -1 -10 4 0 6 5 11 10 11 6 0 10 -2
10 -4z m1000 -28 c0 -6 -8 -7 -17 -3 -10 4 -26 7 -36 7 -9 0 -15 4 -11 9 3 6
12 8 20 5 8 -3 14 0 14 6 0 7 5 6 15 -2 8 -7 15 -17 15 -22z m490 12 c0 -13
-7 -20 -20 -20 -13 0 -20 7 -20 20 0 13 7 20 20 20 13 0 20 -7 20 -20z m-1255
-18 c0 -18 -20 -15 -23 4 -3 10 1 15 10 12 7 -3 13 -10 13 -16z m665 3 c0 -8
-7 -15 -15 -15 -9 0 -12 6 -9 15 4 8 10 15 15 15 5 0 9 -7 9 -15z m110 -39 c0
-3 -4 -8 -10 -11 -5 -3 -10 -1 -10 4 0 6 5 11 10 11 6 0 10 -2 10 -4z m170 -6
c0 -5 -7 -10 -16 -10 -8 0 -12 5 -9 10 3 6 10 10 16 10 5 0 9 -4 9 -10z m338
-1 c-2 -6 -8 -10 -13 -10 -5 0 -11 4 -13 10 -2 6 4 11 13 11 9 0 15 -5 13 -11z
m-104 -29 c15 -15 -3 -27 -34 -22 -21 3 -30 10 -30 23 0 16 5 18 28 13 15 -4
31 -10 36 -14z m46 5 c0 -8 -4 -15 -9 -15 -13 0 -22 16 -14 24 11 11 23 6 23
-9z m-700 -7 c0 -17 -41 -58 -57 -58 -26 0 -11 53 17 61 37 10 40 10 40 -3z
m300 3 c0 -13 -26 -32 -33 -24 -14 13 -6 33 13 33 11 0 20 -4 20 -9z m150 -12
c0 -5 -4 -9 -10 -9 -5 0 -10 7 -10 16 0 8 5 12 10 9 6 -3 10 -10 10 -16z
m-552 -4 c2 -2 1 -13 -3 -24 -4 -15 -15 -21 -35 -21 -35 0 -45 13 -30 41 9 16
17 19 38 14 15 -4 29 -8 30 -10z m180 -7 c-7 -20 -48 -23 -48 -4 0 11 9 16 26
16 16 0 24 -5 22 -12z m-5898 -64 c0 -8 -4 -14 -10 -14 -5 0 -10 9 -10 21 0
11 5 17 10 14 6 -3 10 -13 10 -21z m6020 6 c0 -11 -4 -20 -10 -20 -5 0 -10 9
-10 20 0 11 5 20 10 20 6 0 10 -9 10 -20z m98 -8 c2 -7 -2 -12 -9 -12 -6 0
-17 -7 -23 -16 -7 -9 -18 -12 -29 -8 -20 7 -23 24 -3 24 7 0 19 7 26 15 14 17
31 16 38 -3z m402 -2 c0 -13 -5 -18 -15 -14 -12 5 -13 10 -4 20 15 19 19 18
19 -6z m-70 -5 c0 -8 -7 -15 -15 -15 -16 0 -20 12 -8 23 11 12 23 8 23 -8z
m-176 -4 c3 -5 -4 -11 -17 -15 -35 -9 -40 -7 -27 9 14 17 36 20 44 6z m116
-12 c0 -14 -17 -10 -23 5 -4 10 -1 13 9 9 7 -3 14 -9 14 -14z m-410 -15 c0 -8
-10 -14 -25 -14 -23 0 -34 18 -19 32 10 10 44 -4 44 -18z m608 -52 c2 -12 -1
-22 -6 -22 -15 0 -34 28 -27 40 10 17 30 6 33 -18z m-6596 -4 c-7 -7 -12 -8
-12 -2 0 14 12 26 19 19 2 -3 -1 -11 -7 -17z m6061 5 c-7 -2 -13 -14 -13 -26
0 -14 -3 -18 -10 -11 -15 15 -2 44 19 43 10 0 11 -2 4 -6z m67 3 c0 -2 -7 -7
-16 -10 -8 -3 -12 -2 -9 4 6 10 25 14 25 6z m148 -18 c2 -10 -1 -18 -7 -18 -6
0 -11 6 -11 14 0 8 -8 17 -17 20 -11 3 -8 4 7 3 15 -1 26 -9 28 -19z m254 -10
c-7 -7 -12 -8 -12 -2 0 14 12 26 19 19 2 -3 -1 -11 -7 -17z m-538 3 c4 -5 3
-17 0 -26 -10 -24 -48 -15 -52 13 -3 18 1 22 22 22 14 0 27 -4 30 -9z m448 -6
c0 -5 -5 -11 -11 -13 -6 -2 -11 4 -11 13 0 9 5 15 11 13 6 -2 11 -8 11 -13z
m-307 -45 c3 -5 1 -10 -4 -10 -6 0 -11 5 -11 10 0 6 2 10 4 10 3 0 8 -4 11
-10z m-47 -57 c-2 -10 -13 -19 -26 -21 -17 -3 -22 2 -22 17 0 16 6 21 26 21
19 0 25 -5 22 -17z m459 -8 c8 -22 -6 -33 -17 -15 -13 20 -12 30 0 30 6 0 13
-7 17 -15z m-107 -16 c0 -5 -4 -9 -10 -9 -5 0 -10 7 -10 16 0 8 5 12 10 9 6
-3 10 -10 10 -16z m-40 1 c0 -5 -4 -10 -9 -10 -6 0 -13 5 -16 10 -3 6 1 10 9
10 9 0 16 -4 16 -10z m-135 -30 c-10 -11 -24 -20 -32 -20 -11 0 -11 4 -1 20 7
11 21 20 32 20 18 0 19 -1 1 -20z m156 -49 c-13 -17 -29 -31 -37 -31 -20 0
-18 6 13 46 33 45 56 30 24 -15z m-322 17 c11 -11 18 -25 15 -30 -7 -11 -34
-10 -34 2 0 6 -11 10 -25 10 -18 0 -25 5 -25 20 0 28 43 27 69 -2z m471 -30
c0 -16 -30 -8 -40 12 -10 18 -9 19 15 8 14 -6 25 -15 25 -20z m-300 7 c13 -16
7 -45 -9 -45 -6 0 -22 11 -36 24 l-26 24 23 5 c13 2 26 5 29 6 4 0 12 -6 19
-14z m60 -20 c0 -8 -7 -15 -15 -15 -8 0 -15 7 -15 15 0 8 7 15 15 15 8 0 15
-7 15 -15z m120 -5 c0 -5 -4 -10 -10 -10 -5 0 -10 5 -10 10 0 6 5 10 10 10 6
0 10 -4 10 -10z m-362 -52 c-7 -20 -58 -23 -58 -4 0 11 10 16 31 16 20 0 29
-4 27 -12z m-8627 -55 c18 -49 -11 -75 -33 -29 -11 26 -5 56 12 56 6 0 15 -12
21 -27z m8649 7 c0 -5 -2 -10 -4 -10 -3 0 -8 5 -11 10 -3 6 -1 10 4 10 6 0 11
-4 11 -10z m157 -20 c2 -13 -3 -20 -13 -20 -11 0 -14 5 -10 16 3 9 6 21 6 26
0 18 14 -1 17 -22z m319 21 c-3 -5 -17 -8 -31 -8 -14 0 -25 3 -25 8 0 5 14 9
31 9 16 0 28 -4 25 -9z m-478 -33 c-7 -20 -68 -23 -68 -4 0 12 10 16 36 16 24
0 34 -4 32 -12z m478 0 c4 -5 -7 -8 -24 -8 -18 0 -32 4 -32 8 0 10 46 10 56 0z
m-459 -80 c-3 -8 -6 -5 -6 6 -1 11 2 17 5 13 3 -3 4 -12 1 -19z m-137 -19 c0
-26 -3 -30 -22 -27 -17 2 -24 11 -26 31 -3 23 0 27 22 27 22 0 26 -4 26 -31z
m-1880 -445 c21 -121 21 -201 1 -178 -10 11 -29 133 -37 244 -9 125 9 91 36
-66z m2830 -2234 c0 -5 -4 -10 -10 -10 -5 0 -10 5 -10 10 0 6 5 10 10 10 6 0
10 -4 10 -10z m-35 -942 c-1 -38 4 -48 47 -90 53 -53 72 -83 64 -103 -2 -7 -2
-16 2 -20 4 -4 7 -21 8 -38 1 -18 6 -66 12 -107 6 -41 14 -97 17 -125 8 -54 8
-61 20 -150 4 -33 14 -71 22 -84 9 -14 13 -35 9 -51 -3 -18 0 -33 9 -40 8 -7
15 -23 15 -36 0 -12 5 -26 10 -29 6 -3 10 -20 10 -36 0 -17 4 -39 10 -49 5
-10 12 -33 14 -51 3 -19 12 -59 20 -89 8 -30 22 -86 31 -125 9 -38 24 -99 35
-135 32 -112 40 -147 40 -171 0 -14 7 -49 16 -79 8 -30 16 -62 18 -70 6 -37
41 -185 68 -295 16 -66 33 -138 37 -160 4 -22 13 -58 19 -80 24 -87 80 -308
92 -365 4 -19 13 -48 19 -63 6 -16 11 -40 11 -54 0 -14 9 -53 20 -87 42 -134
53 -172 56 -201 1 -16 18 -93 38 -170 19 -77 40 -174 46 -215 6 -41 18 -108
26 -148 9 -40 13 -79 11 -86 -3 -8 0 -19 6 -25 7 -7 13 -37 14 -67 0 -30 5
-60 11 -67 15 -19 34 -122 27 -150 -5 -17 -2 -26 9 -30 11 -4 16 -19 15 -44 0
-58 7 -94 21 -103 7 -4 10 -17 7 -29 -3 -11 1 -25 9 -32 8 -6 17 -29 20 -50 4
-22 12 -39 19 -39 14 0 38 -48 30 -61 -4 -5 -13 -9 -21 -9 -8 0 -23 -5 -33
-11 -14 -10 -26 -7 -60 12 -30 17 -44 20 -49 12 -8 -13 -82 -235 -206 -618
-147 -457 -155 -535 -77 -720 23 -55 45 -108 48 -117 5 -17 -20 -18 -434 -18
-242 0 -596 3 -786 7 -312 6 -347 8 -347 23 0 9 4 20 8 25 5 6 19 36 32 67 15
41 34 66 60 85 137 102 209 198 288 388 64 154 66 166 67 355 0 171 -1 177
-28 240 -16 36 -33 82 -38 103 -5 22 -18 56 -29 77 -18 34 -25 40 -75 50 -30
6 -57 15 -60 20 -3 5 38 9 90 9 104 1 163 21 186 63 18 34 59 257 59 323 0 58
-29 364 -50 525 -25 195 -33 434 -26 774 6 338 15 465 51 686 8 52 21 138 27
190 14 113 16 608 3 975 -5 143 -9 280 -9 305 0 30 14 80 43 152 63 156 71
157 72 12 0 -66 4 -128 9 -139 9 -23 10 -22 35 70 16 57 99 259 115 280 5 6
20 40 35 78 15 37 30 67 34 67 4 0 6 -19 6 -42z m395 -542 c0 -11 -19 -15 -25
-6 -3 5 1 10 9 10 9 0 16 -2 16 -4z m4006 -1683 c-11 -11 -19 6 -11 24 8 17 8
17 12 0 3 -10 2 -21 -1 -24z m-8 -115 c-1 -68 2 -103 10 -106 7 -2 8 -11 3
-25 -11 -30 -7 -142 7 -195 9 -32 9 -47 0 -61 -7 -11 -8 -26 -3 -37 5 -11 10
-64 12 -119 2 -55 6 -126 9 -157 4 -35 2 -58 -4 -58 -12 0 -23 -38 -12 -42 5
-2 11 -27 14 -56 l6 -53 -25 27 c-31 34 -38 62 -60 251 -19 162 -17 360 5 540
11 90 31 193 36 193 2 0 3 -46 2 -102z m-10038 -44 c19 -38 89 -175 155 -304
66 -129 121 -243 123 -252 2 -13 -3 -18 -20 -18 -13 0 -30 -5 -38 -10 -12 -7
-8 -11 18 -16 56 -11 35 -24 -40 -24 -95 0 -141 14 -172 50 -26 32 -60 49
-116 59 l-35 6 -3 153 c-2 105 2 182 13 243 8 49 15 100 15 114 0 14 7 28 15
31 8 3 17 15 20 25 11 32 28 17 65 -57z m4130 -91 c5 -43 18 -121 29 -173 28
-134 50 -259 53 -303 l3 -38 -73 -25 c-40 -13 -101 -37 -135 -52 -34 -16 -75
-32 -91 -36 l-28 -7 7 48 c12 81 72 303 110 408 20 55 50 142 67 194 35 110
44 107 58 -16z"/>
<path d="M10361 11454 c0 -11 3 -14 6 -6 3 7 2 16 -1 19 -3 4 -6 -2 -5 -13z"/>
<path d="M8521 11383 l-34 -4 26 -14 c31 -16 112 -1 86 16 -14 9 -18 9 -78 2z"/>
<path d="M10325 11350 c3 -5 8 -10 11 -10 2 0 4 5 4 10 0 6 -5 10 -11 10 -5 0
-7 -4 -4 -10z"/>
<path d="M8680 11201 l-45 -15 39 -7 c21 -3 42 -12 46 -20 6 -9 11 -5 16 15 9
38 -4 45 -56 27z"/>
<path d="M8811 11206 c-7 -8 -21 -12 -31 -9 -30 8 -24 -4 9 -22 27 -13 33 -13
73 4 33 15 38 20 20 20 -13 1 -32 5 -42 11 -13 7 -21 6 -29 -4z"/>
<path d="M8540 11185 c0 -19 11 -19 36 0 18 14 18 14 -8 15 -18 0 -28 -5 -28
-15z"/>
<path d="M8905 11170 c4 -6 11 -8 16 -5 14 9 11 15 -7 15 -8 0 -12 -5 -9 -10z"/>
<path d="M8531 11116 c-14 -17 -7 -36 14 -36 22 0 29 20 13 36 -13 13 -16 13
-27 0z"/>
<path d="M8714 11019 c-3 -6 -15 -9 -25 -6 -10 3 -21 2 -24 -3 -6 -10 77 -22
99 -14 14 5 13 9 -10 20 -32 17 -31 17 -40 3z"/>
<path d="M8530 11010 c0 -5 5 -10 11 -10 5 0 7 5 4 10 -3 6 -8 10 -11 10 -2 0
-4 -4 -4 -10z"/>
<path d="M8560 10999 c0 -5 5 -7 10 -4 6 3 10 8 10 11 0 2 -4 4 -10 4 -5 0
-10 -5 -10 -11z"/>
<path d="M8791 10926 c-9 -11 -7 -15 8 -19 22 -5 31 0 31 20 0 17 -24 17 -39
-1z"/>
<path d="M8720 10915 c0 -9 5 -15 11 -13 6 2 11 8 11 13 0 5 -5 11 -11 13 -6
2 -11 -4 -11 -13z"/>
<path d="M9507 10784 c-12 -12 3 -22 23 -17 11 3 17 9 14 14 -6 10 -28 12 -37
3z"/>
<path d="M8910 10770 c0 -5 5 -10 11 -10 5 0 7 5 4 10 -3 6 -8 10 -11 10 -2 0
-4 -4 -4 -10z"/>
<path d="M9178 10743 c6 -2 18 -2 25 0 6 3 1 5 -13 5 -14 0 -19 -2 -12 -5z"/>
<path d="M10468 10733 c6 -2 18 -2 25 0 6 3 1 5 -13 5 -14 0 -19 -2 -12 -5z"/>
<path d="M10455 10630 c3 -5 10 -10 16 -10 5 0 9 5 9 10 0 6 -7 10 -16 10 -8
0 -12 -4 -9 -10z"/>
<path d="M10467 10199 c-10 -6 -33 -8 -50 -5 -33 6 -67 -7 -54 -20 4 -4 24 -8
45 -9 20 -1 48 -5 62 -9 14 -4 38 -2 53 3 30 12 37 40 10 39 -10 0 -25 2 -33
5 -8 4 -23 2 -33 -4z"/>
<path d="M10542 10107 c-8 -9 -7 -21 4 -41 9 -19 11 -33 5 -40 -11 -14 6 -106
20 -106 5 0 9 -6 9 -14 0 -21 21 -25 56 -11 19 8 37 9 45 4 46 -29 23 19 -55
114 -31 38 -56 75 -56 82 0 20 -16 27 -28 12z"/>
<path d="M8765 11630 c-3 -5 1 -10 10 -10 9 0 13 5 10 10 -3 6 -8 10 -10 10
-2 0 -7 -4 -10 -10z"/>
<path d="M14011 12574 c0 -11 3 -14 6 -6 3 7 2 16 -1 19 -3 4 -6 -2 -5 -13z"/>
<path d="M16765 12440 c-3 -5 -1 -10 4 -10 6 0 11 5 11 10 0 6 -2 10 -4 10 -3
0 -8 -4 -11 -10z"/>
<path d="M16789 12363 c-13 -16 -12 -17 4 -4 9 7 17 15 17 17 0 8 -8 3 -21
-13z"/>
<path d="M3815 12160 c3 -5 8 -10 11 -10 2 0 4 5 4 10 0 6 -5 10 -11 10 -5 0
-7 -4 -4 -10z"/>
<path d="M3765 12150 c-3 -5 1 -10 10 -10 9 0 13 5 10 10 -3 6 -8 10 -10 10
-2 0 -7 -4 -10 -10z"/>
<path d="M4234 11989 c-8 -14 8 -30 22 -21 9 5 8 10 -2 19 -9 9 -15 10 -20 2z"/>
<path d="M4436 11992 c-2 -4 7 -12 20 -19 13 -6 24 -7 24 -3 0 4 8 7 18 5 9
-1 11 0 5 2 -7 3 -13 9 -13 14 0 11 -47 12 -54 1z"/>
<path d="M4370 11980 c-9 -6 -10 -10 -3 -10 6 0 15 5 18 10 8 12 4 12 -15 0z"/>
<path d="M4575 11980 c-4 -6 5 -10 19 -10 14 0 26 5 26 10 0 6 -9 10 -19 10
-11 0 -23 -4 -26 -10z"/>
<path d="M4470 11920 c0 -11 4 -20 9 -20 5 0 7 9 4 20 -3 11 -7 20 -9 20 -2 0
-4 -9 -4 -20z"/>
<path d="M4550 11910 c0 -5 5 -10 10 -10 6 0 10 5 10 10 0 6 -4 10 -10 10 -5
0 -10 -4 -10 -10z"/>
<path d="M4255 11900 c3 -5 13 -10 21 -10 8 0 14 5 14 10 0 6 -9 10 -21 10
-11 0 -17 -4 -14 -10z"/>
<path d="M4645 11831 c-3 -5 -1 -12 5 -16 5 -3 10 1 10 9 0 18 -6 21 -15 7z"/>
<path d="M4389 11793 l5 -38 6 30 c7 31 4 45 -9 45 -4 0 -5 -17 -2 -37z"/>
<path d="M4570 11810 c0 -16 -7 -20 -30 -20 -16 0 -30 -4 -30 -10 0 -5 -7 -10
-15 -10 -23 0 -53 -39 -48 -61 7 -27 36 -20 43 10 3 13 14 29 25 35 11 6 23
15 26 20 4 5 14 6 23 3 12 -5 16 0 16 23 0 17 -2 30 -5 30 -3 0 -5 -9 -5 -20z"/>
<path d="M4310 11790 c0 -21 16 -44 23 -33 4 6 0 19 -8 29 -11 15 -14 16 -15
4z"/>
<path d="M4299 11730 c-11 -6 -15 -18 -12 -35 3 -13 9 -22 14 -19 5 3 7 9 4
14 -3 4 0 10 6 12 6 2 10 11 8 20 -3 12 -8 14 -20 8z"/>
<path d="M4036 11714 c-6 -15 -4 -15 11 -3 10 7 20 15 22 16 2 2 -3 3 -11 3
-9 0 -19 -7 -22 -16z"/>
<path d="M4235 11720 c3 -5 8 -10 11 -10 2 0 4 5 4 10 0 6 -5 10 -11 10 -5 0
-7 -4 -4 -10z"/>
<path d="M4340 11715 c0 -10 11 -15 35 -15 26 0 33 3 29 15 -4 9 -19 15 -35
15 -19 0 -29 -5 -29 -15z"/>
<path d="M4160 11690 c0 -5 7 -10 15 -10 8 0 15 5 15 10 0 6 -7 10 -15 10 -8
0 -15 -4 -15 -10z"/>
<path d="M4070 11659 c0 -5 10 -9 23 -7 19 3 22 -1 21 -29 -1 -18 2 -33 7 -33
16 0 10 67 -7 74 -24 9 -44 7 -44 -5z"/>
<path d="M4190 11640 c0 -19 -4 -41 -9 -49 -7 -11 -3 -18 16 -28 14 -7 26 -13
28 -13 1 0 -2 23 -6 52 -10 63 -29 88 -29 38z"/>
<path d="M4481 11633 c-1 -13 -5 -23 -11 -23 -5 0 -10 -4 -10 -10 0 -12 27
-13 34 -1 4 5 2 20 -3 33 l-10 23 0 -22z"/>
<path d="M4280 11593 c0 -17 -7 -27 -21 -30 -15 -4 -19 -12 -17 -32 2 -17 -2
-25 -10 -23 -8 1 -11 -2 -8 -7 7 -11 96 -10 96 2 0 4 -13 7 -29 7 -16 0 -31 6
-34 15 -8 19 9 28 39 21 20 -5 24 -3 24 18 0 27 26 42 45 26 8 -7 15 -7 19 -2
6 11 -32 24 -76 27 -24 2 -28 -1 -28 -22z"/>
<path d="M4665 11600 c3 -5 8 -10 11 -10 2 0 4 5 4 10 0 6 -5 10 -11 10 -5 0
-7 -4 -4 -10z"/>
<path d="M4476 11561 c-4 -5 -2 -12 3 -15 5 -4 12 -2 15 3 4 5 2 12 -3 15 -5
4 -12 2 -15 -3z"/>
<path d="M4408 11553 c7 -3 16 -2 19 1 4 3 -2 6 -13 5 -11 0 -14 -3 -6 -6z"/>
<path d="M4510 11550 c0 -5 5 -10 10 -10 6 0 10 5 10 10 0 6 -4 10 -10 10 -5
0 -10 -4 -10 -10z"/>
<path d="M4120 11499 c0 -5 5 -7 10 -4 6 3 10 8 10 11 0 2 -4 4 -10 4 -5 0
-10 -5 -10 -11z"/>
<path d="M4360 11461 c0 -6 6 -11 14 -11 8 0 16 -5 18 -12 5 -14 38 -4 38 12
0 5 -9 10 -19 10 -11 0 -26 3 -35 6 -9 3 -16 1 -16 -5z"/>
<path d="M4130 11360 c-12 -8 -11 -10 8 -10 12 0 22 5 22 10 0 13 -11 13 -30
0z"/>
<path d="M4320 11362 c0 -12 39 -32 44 -23 3 4 -6 13 -19 19 -14 7 -25 8 -25
4z"/>
<path d="M4395 11351 c-6 -11 9 -23 19 -14 9 9 7 23 -3 23 -6 0 -12 -4 -16 -9z"/>
<path d="M4138 11283 c12 -2 30 -2 40 0 9 3 -1 5 -23 4 -22 0 -30 -2 -17 -4z"/>
<path d="M4238 11203 c7 -3 16 -2 19 1 4 3 -2 6 -13 5 -11 0 -14 -3 -6 -6z"/>
<path d="M4340 11136 c0 -10 9 -16 21 -16 24 0 21 23 -4 28 -10 2 -17 -3 -17
-12z"/>
<path d="M4343 11083 c-4 -10 -11 -22 -17 -26 -6 -4 0 -7 14 -5 17 2 26 10 28
26 4 26 -16 30 -25 5z"/>
<path d="M2515 10890 c-3 -5 1 -10 10 -10 9 0 13 5 10 10 -3 6 -8 10 -10 10
-2 0 -7 -4 -10 -10z"/>
</g>
</svg>
